<svg width="78" height="47" viewBox="0 0 78 47" fill="none" xmlns="http://www.w3.org/2000/svg">
<path d="M18.6524 46.9726H59.5215C61.4746 46.9726 63.0371 45.4101 63.0371 43.4082C63.0371 41.455 61.4746 39.8925 59.5215 39.8925H18.6524C16.6992 39.8925 15.1367 41.455 15.1367 43.4082C15.1367 45.4101 16.6992 46.9726 18.6524 46.9726Z" fill="black"/>
<path d="M11.1817 27.0019H66.9922C68.9453 27.0019 70.5078 25.4394 70.5078 23.4863C70.5078 21.5332 68.9453 19.9707 66.9922 19.9707H11.1817C9.22848 19.9707 7.66598 21.5332 7.66598 23.4863C7.66598 25.4394 9.22848 27.0019 11.1817 27.0019Z" fill="black"/>
<path d="M3.51558 7.08H74.4141C76.416 7.08 77.9297 5.5175 77.9297 3.5644C77.9297 1.5625 76.416 0 74.4141 0H3.51558C1.56248 0 0 1.5625 0 3.5644C0 5.5175 1.56248 7.08 3.51558 7.08Z" fill="black"/>
</svg>
